# This file uses centimeters as units for non-parametric coordinates.

mtllib pine.mtl
v 8.702626 41.759906 -3.604739
v 6.660704 41.759906 -6.660696
v 3.604750 41.759906 -8.702623
v 0.000005 41.759906 -9.419648
v -3.604740 41.759906 -8.702627
v -6.660696 41.759906 -6.660705
v -8.702624 41.759906 -3.604750
v -9.419649 41.759906 -0.000007
v -8.702626 41.759906 3.604742
v -6.660702 41.759906 6.660698
v -3.604749 41.759906 8.702624
v -0.000001 41.759906 9.419650
v 3.604744 41.759906 8.702626
v 6.660699 41.759906 6.660702
v 8.702624 41.759906 3.604746
v 9.419649 41.759906 0.000000
v 0.000000 71.718264 0.000000
v 13.609218 25.558427 -5.637114
v 10.416046 25.558427 -10.416035
v 5.637129 25.558427 -13.609213
v 0.000007 25.558427 -14.730507
v -5.637115 25.558427 -13.609219
v -10.416037 25.558427 -10.416045
v -13.609214 25.558427 -5.637127
v -14.730508 25.558427 -0.000007
v -13.609217 25.558427 5.637116
v -10.416043 25.558427 10.416039
v -5.637125 25.558427 13.609215
v -0.000002 25.558427 14.730509
v 5.637119 25.558427 13.609216
v 10.416040 25.558427 10.416042
v 13.609215 25.558427 5.637121
v 14.730508 25.558427 0.000000
v 0.000000 56.387997 0.000000
v 19.038191 10.203370 -7.885864
v 14.571204 10.203370 -14.571189
v 7.885885 10.203370 -19.038181
v 0.000010 10.203370 -20.606783
v -7.885866 10.203370 -19.038191
v -14.571191 10.203370 -14.571203
v -19.038185 10.203370 -7.885882
v -20.606785 10.203370 -0.000007
v -19.038189 10.203370 7.885869
v -14.571200 10.203370 14.571194
v -7.885879 10.203370 19.038185
v -0.000003 10.203370 20.606785
v 7.885873 10.203370 19.038187
v 14.571196 10.203370 14.571198
v 19.038187 10.203370 7.885876
v 20.606785 10.203370 0.000000
v 0.000000 41.250325 0.000000
v 1.139359 -5.280324 -1.139359
v 0.000000 -5.280324 -1.611297
v -1.139359 -5.280324 -1.139359
v -1.611297 -5.280324 0.000000
v -1.139359 -5.280324 1.139359
v 0.000000 -5.280324 1.611297
v 1.139359 -5.280324 1.139359
v 1.611297 -5.280324 0.000000
v 1.139359 12.173188 -1.139359
v 0.000000 12.173188 -1.611297
v -1.139359 12.173188 -1.139359
v -1.611297 12.173188 0.000000
v -1.139359 12.173188 1.139359
v 0.000000 12.173188 1.611297
v 1.139359 12.173188 1.139359
v 1.611297 12.173188 0.000000
v 0.000000 -5.280324 0.000000
v 0.000000 12.173188 0.000000
vt 0.638953 0.557556
vt 0.650401 0.500000
vt 0.638953 0.442444
vt 0.606350 0.393650
vt 0.557556 0.361047
vt 0.500000 0.349599
vt 0.442444 0.361047
vt 0.393650 0.393650
vt 0.361047 0.442444
vt 0.349599 0.500000
vt 0.361047 0.557556
vt 0.393650 0.606350
vt 0.442444 0.638953
vt 0.500000 0.650401
vt 0.557556 0.638952
vt 0.606350 0.606350
vt 0.500000 0.500000
vt 0.717295 0.590006
vt 0.735198 0.500000
vt 0.717295 0.409994
vt 0.666310 0.333690
vt 0.590006 0.282705
vt 0.500000 0.264802
vt 0.409993 0.282705
vt 0.333690 0.333690
vt 0.282705 0.409994
vt 0.264802 0.500000
vt 0.282705 0.590006
vt 0.333690 0.666310
vt 0.409994 0.717295
vt 0.500000 0.735198
vt 0.590007 0.717295
vt 0.666310 0.666310
vt 0.500000 0.500000
vt 0.803978 0.625912
vt 0.829023 0.500000
vt 0.803978 0.374088
vt 0.732655 0.267345
vt 0.625912 0.196022
vt 0.500000 0.170977
vt 0.374088 0.196022
vt 0.267345 0.267345
vt 0.196022 0.374088
vt 0.170977 0.500000
vt 0.196022 0.625912
vt 0.267346 0.732655
vt 0.374088 0.803978
vt 0.500000 0.829023
vt 0.625912 0.803978
vt 0.732655 0.732654
vt 0.500000 0.500000
vt 0.518192 0.518192
vt 0.500000 0.525727
vt 0.500000 0.525727
vt 0.518192 0.518192
vt 0.481808 0.518192
vt 0.481808 0.518192
vt 0.474273 0.500000
vt 0.474273 0.500000
vt 0.481808 0.481808
vt 0.481808 0.481808
vt 0.500000 0.474273
vt 0.500000 0.474273
vt 0.518192 0.481808
vt 0.518192 0.481808
vt 0.525727 0.500000
vt 0.525727 0.500000
vt 0.500000 0.500000
vt 0.500000 0.500000
vn 0.000000 -1.000000 0.000000
vn 0.000000 -1.000000 0.000000
vn 0.000000 -1.000000 0.000000
vn 0.000000 -1.000000 0.000000
vn 0.000000 -1.000000 -0.000000
vn 0.000000 -1.000000 -0.000000
vn 0.000000 -1.000000 0.000000
vn 0.000000 -1.000000 0.000000
vn 0.000000 -1.000000 0.000000
vn 0.000000 -1.000000 0.000001
vn 0.000000 -1.000000 0.000000
vn 0.000000 -1.000000 -0.000000
vn 0.000000 -1.000000 0.000003
vn 0.000000 -1.000000 -0.000003
vn 0.000000 -1.000000 -0.000000
vn 0.000000 -1.000000 -0.000009
vn 0.881341 0.299947 -0.365062
vn 0.674549 0.299947 -0.674548
vn 0.000002 1.000000 -0.000000
vn 0.365063 0.299947 -0.881340
vn 0.000001 0.299947 -0.953956
vn -0.365062 0.299947 -0.881341
vn -0.674548 0.299947 -0.674549
vn -0.881340 0.299947 -0.365063
vn -0.953956 0.299947 -0.000000
vn -0.881341 0.299947 0.365062
vn -0.674549 0.299947 0.674548
vn -0.365063 0.299947 0.881340
vn -0.000000 0.299947 0.953956
vn 0.365063 0.299947 0.881340
vn 0.674549 0.299947 0.674549
vn 0.881340 0.299947 0.365063
vn 0.953956 0.299947 0.000000
vn 0.000000 -1.000000 -0.000002
vn 0.000000 -1.000000 -0.000000
vn 0.000000 -1.000000 0.000000
vn 0.000000 -1.000000 0.000000
vn 0.000000 -1.000000 -0.000000
vn 0.000000 -1.000000 0.000000
vn 0.000000 -1.000000 0.000000
vn 0.000000 -1.000000 0.000000
vn 0.000000 -1.000000 -0.000000
vn 0.000000 -1.000000 -0.000000
vn 0.000000 -1.000000 -0.000000
vn 0.000000 -1.000000 -0.000001
vn 0.000000 -1.000000 0.000001
vn 0.000000 -1.000000 0.000000
vn 0.000000 -1.000000 0.000003
vn 0.000000 -1.000000 0.000004
vn 0.833611 0.431120 -0.345293
vn 0.638019 0.431120 -0.638018
vn 0.000000 1.000000 0.000000
vn 0.345294 0.431120 -0.833611
vn 0.000000 0.431120 -0.902294
vn -0.345293 0.431120 -0.833612
vn -0.638018 0.431120 -0.638019
vn -0.833611 0.431120 -0.345294
vn -0.902294 0.431120 -0.000000
vn -0.833611 0.431120 0.345293
vn -0.638019 0.431120 0.638018
vn -0.345293 0.431120 0.833611
vn -0.000000 0.431120 0.902294
vn 0.345293 0.431120 0.833611
vn 0.638018 0.431120 0.638019
vn 0.833611 0.431120 0.345293
vn 0.902294 0.431120 0.000000
vn 0.000000 -1.000000 -0.000000
vn 0.000000 -1.000000 0.000000
vn 0.000000 -1.000000 0.000000
vn 0.000000 -1.000000 0.000000
vn 0.000000 -1.000000 0.000000
vn 0.000000 -1.000000 0.000000
vn 0.000000 -1.000000 0.000000
vn 0.000000 -1.000000 0.000000
vn 0.000000 -1.000000 0.000000
vn 0.000000 -1.000000 -0.000000
vn 0.000000 -1.000000 -0.000000
vn 0.000000 -1.000000 0.000000
vn 0.000000 -1.000000 0.000000
vn 0.000000 -1.000000 0.000000
vn 0.000000 -1.000000 0.000000
vn 0.000000 -1.000000 0.000000
vn 0.769756 0.553005 -0.318843
vn 0.589146 0.553005 -0.589146
vn -0.000000 1.000000 0.000000
vn 0.318844 0.553005 -0.769756
vn 0.000001 0.553005 -0.833178
vn -0.318843 0.553005 -0.769756
vn -0.589146 0.553005 -0.589146
vn -0.769756 0.553005 -0.318844
vn -0.833178 0.553005 -0.000000
vn -0.769756 0.553005 0.318843
vn -0.589146 0.553005 0.589146
vn -0.318844 0.553005 0.769756
vn -0.000000 0.553005 0.833178
vn 0.318843 0.553005 0.769756
vn 0.589146 0.553005 0.589146
vn 0.769756 0.553005 0.318843
vn 0.833178 0.553005 0.000000
vn 0.382683 0.000000 -0.923880
vn 0.382683 0.000000 -0.923880
vn 0.382684 0.000000 -0.923880
vn 0.382684 0.000000 -0.923880
vn -0.382684 0.000000 -0.923880
vn -0.382684 0.000000 -0.923880
vn -0.382683 0.000000 -0.923880
vn -0.382683 0.000000 -0.923880
vn -0.923880 0.000000 -0.382683
vn -0.923880 0.000000 -0.382683
vn -0.923880 0.000000 -0.382683
vn -0.923880 0.000000 -0.382683
vn -0.923880 0.000000 0.382683
vn -0.923880 0.000000 0.382683
vn -0.923880 0.000000 0.382683
vn -0.923880 0.000000 0.382683
vn -0.382683 0.000000 0.923880
vn -0.382683 0.000000 0.923880
vn -0.382684 0.000000 0.923880
vn -0.382684 0.000000 0.923880
vn 0.382683 0.000000 0.923880
vn 0.382683 0.000000 0.923880
vn 0.382683 0.000000 0.923880
vn 0.382683 0.000000 0.923880
vn 0.923880 0.000000 0.382683
vn 0.923880 0.000000 0.382683
vn 0.923880 0.000000 0.382683
vn 0.923880 0.000000 0.382683
vn 0.923880 0.000000 -0.382684
vn 0.923880 0.000000 -0.382684
vn 0.923880 0.000000 -0.382684
vn 0.923880 0.000000 -0.382684
vn 0.000000 -1.000000 0.000000
vn 0.000000 -1.000000 0.000000
vn 0.000000 -1.000000 0.000000
vn 0.000000 -1.000000 0.000000
vn 0.000000 -1.000000 0.000000
vn 0.000000 -1.000000 0.000000
vn 0.000000 -1.000000 0.000000
vn 0.000000 -1.000000 0.000000
vn 0.000000 -1.000000 0.000000
vn 0.000000 1.000000 0.000000
vn 0.000000 1.000000 0.000000
vn 0.000000 1.000000 0.000000
vn 0.000000 1.000000 0.000000
vn 0.000000 1.000000 0.000000
vn 0.000000 1.000000 0.000000
vn 0.000000 1.000000 0.000000
vn 0.000000 1.000000 0.000000
vn 0.000000 1.000000 0.000000
s 1
usemtl initialShadingGroup
f 1/1/1 16/2/2 2/16/3
f 16/2/2 15/3/4 2/16/3
f 15/3/4 14/4/5 2/16/3
f 14/4/5 13/5/6 2/16/3
f 13/5/6 12/6/7 2/16/3
f 12/6/7 11/7/8 2/16/3
f 11/7/8 10/8/9 2/16/3
f 10/8/9 9/9/10 2/16/3
f 9/9/10 8/10/11 2/16/3
f 8/10/11 7/11/12 2/16/3
f 7/11/12 6/12/13 2/16/3
f 6/12/13 5/13/14 2/16/3
f 5/13/14 4/14/15 2/16/3
f 4/14/15 3/15/16 2/16/3
s 2
f 1/1/17 2/16/18 17/17/19
f 2/16/18 3/15/20 17/17/19
f 3/15/20 4/14/21 17/17/19
f 4/14/21 5/13/22 17/17/19
f 5/13/22 6/12/23 17/17/19
f 6/12/23 7/11/24 17/17/19
f 7/11/24 8/10/25 17/17/19
f 8/10/25 9/9/26 17/17/19
f 9/9/26 10/8/27 17/17/19
f 10/8/27 11/7/28 17/17/19
f 11/7/28 12/6/29 17/17/19
f 12/6/29 13/5/30 17/17/19
f 13/5/30 14/4/31 17/17/19
f 14/4/31 15/3/32 17/17/19
f 15/3/32 16/2/33 17/17/19
f 16/2/33 1/1/17 17/17/19
s 3
f 18/18/34 33/19/35 19/33/36
f 33/19/35 32/20/37 19/33/36
f 32/20/37 31/21/38 19/33/36
f 31/21/38 30/22/39 19/33/36
f 30/22/39 29/23/40 19/33/36
f 29/23/40 28/24/41 19/33/36
f 28/24/41 27/25/42 19/33/36
f 27/25/42 26/26/43 19/33/36
f 26/26/43 25/27/44 19/33/36
f 25/27/44 24/28/45 19/33/36
f 24/28/45 23/29/46 19/33/36
f 23/29/46 22/30/47 19/33/36
f 22/30/47 21/31/48 19/33/36
f 21/31/48 20/32/49 19/33/36
s 4
f 18/18/50 19/33/51 34/34/52
f 19/33/51 20/32/53 34/34/52
f 20/32/53 21/31/54 34/34/52
f 21/31/54 22/30/55 34/34/52
f 22/30/55 23/29/56 34/34/52
f 23/29/56 24/28/57 34/34/52
f 24/28/57 25/27/58 34/34/52
f 25/27/58 26/26/59 34/34/52
f 26/26/59 27/25/60 34/34/52
f 27/25/60 28/24/61 34/34/52
f 28/24/61 29/23/62 34/34/52
f 29/23/62 30/22/63 34/34/52
f 30/22/63 31/21/64 34/34/52
f 31/21/64 32/20/65 34/34/52
f 32/20/65 33/19/66 34/34/52
f 33/19/66 18/18/50 34/34/52
s 5
f 35/35/67 50/36/68 36/50/69
f 50/36/68 49/37/70 36/50/69
f 49/37/70 48/38/71 36/50/69
f 48/38/71 47/39/72 36/50/69
f 47/39/72 46/40/73 36/50/69
f 46/40/73 45/41/74 36/50/69
f 45/41/74 44/42/75 36/50/69
f 44/42/75 43/43/76 36/50/69
f 43/43/76 42/44/77 36/50/69
f 42/44/77 41/45/78 36/50/69
f 41/45/78 40/46/79 36/50/69
f 40/46/79 39/47/80 36/50/69
f 39/47/80 38/48/81 36/50/69
f 38/48/81 37/49/82 36/50/69
s 6
f 35/35/83 36/50/84 51/51/85
f 36/50/84 37/49/86 51/51/85
f 37/49/86 38/48/87 51/51/85
f 38/48/87 39/47/88 51/51/85
f 39/47/88 40/46/89 51/51/85
f 40/46/89 41/45/90 51/51/85
f 41/45/90 42/44/91 51/51/85
f 42/44/91 43/43/92 51/51/85
f 43/43/92 44/42/93 51/51/85
f 44/42/93 45/41/94 51/51/85
f 45/41/94 46/40/95 51/51/85
f 46/40/95 47/39/96 51/51/85
f 47/39/96 48/38/97 51/51/85
f 48/38/97 49/37/98 51/51/85
f 49/37/98 50/36/99 51/51/85
f 50/36/99 35/35/83 51/51/85
s 7
f 52/52/100 53/53/101 60/55/102
f 60/55/102 53/53/101 61/54/103
s 8
f 53/53/104 54/56/105 61/54/106
f 61/54/106 54/56/105 62/57/107
s 9
f 54/56/108 55/58/109 62/57/110
f 62/57/110 55/58/109 63/59/111
s 10
f 55/58/112 56/60/113 63/59/114
f 63/59/114 56/60/113 64/61/115
s 11
f 56/60/116 57/62/117 64/61/118
f 64/61/118 57/62/117 65/63/119
s 12
f 57/62/120 58/64/121 65/63/122
f 65/63/122 58/64/121 66/65/123
s 13
f 58/64/124 59/66/125 66/65/126
f 66/65/126 59/66/125 67/67/127
s 14
f 59/66/128 52/52/129 67/67/130
f 67/67/130 52/52/129 60/55/131
s 15
f 53/53/132 52/52/133 68/68/134
f 54/56/135 53/53/132 68/68/134
f 55/58/136 54/56/135 68/68/134
f 56/60/137 55/58/136 68/68/134
f 57/62/138 56/60/137 68/68/134
f 58/64/139 57/62/138 68/68/134
f 59/66/140 58/64/139 68/68/134
f 52/52/133 59/66/140 68/68/134
s 16
f 60/55/141 61/54/142 69/69/143
f 61/54/142 62/57/144 69/69/143
f 62/57/144 63/59/145 69/69/143
f 63/59/145 64/61/146 69/69/143
f 64/61/146 65/63/147 69/69/143
f 65/63/147 66/65/148 69/69/143
f 66/65/148 67/67/149 69/69/143
f 67/67/149 60/55/141 69/69/143
